<svg xmlns="http://www.w3.org/2000/svg" viewBox="0 0 32 32">
  <rect width="32" height="32" rx="4" fill="#0a0a1a"/>
  <g transform="translate(2,2)">
    <!-- Row 0 -->
    <rect x="0"  y="0"  width="3" height="3" rx=".5" fill="#222"/>
    <rect x="4"  y="0"  width="3" height="3" rx=".5" fill="#222"/>
    <rect x="8"  y="0"  width="3" height="3" rx=".5" fill="#ff2244"/>
    <rect x="12" y="0"  width="3" height="3" rx=".5" fill="#ff2244"/>
    <rect x="16" y="0"  width="3" height="3" rx=".5" fill="#ff2244"/>
    <rect x="20" y="0"  width="3" height="3" rx=".5" fill="#222"/>
    <rect x="24" y="0"  width="3" height="3" rx=".5" fill="#222"/>
    <rect x="28" y="0"  width="0" height="0"/>
    <!-- Row 1 -->
    <rect x="0"  y="4"  width="3" height="3" rx=".5" fill="#222"/>
    <rect x="4"  y="4"  width="3" height="3" rx=".5" fill="#ff2244"/>
    <rect x="8"  y="4"  width="3" height="3" rx=".5" fill="#222"/>
    <rect x="12" y="4"  width="3" height="3" rx=".5" fill="#222"/>
    <rect x="16" y="4"  width="3" height="3" rx=".5" fill="#222"/>
    <rect x="20" y="4"  width="3" height="3" rx=".5" fill="#ff2244"/>
    <rect x="24" y="4"  width="3" height="3" rx=".5" fill="#222"/>
    <!-- Row 2 -->
    <rect x="0"  y="8"  width="3" height="3" rx=".5" fill="#ff2244"/>
    <rect x="4"  y="8"  width="3" height="3" rx=".5" fill="#222"/>
    <rect x="8"  y="8"  width="3" height="3" rx=".5" fill="#222"/>
    <rect x="12" y="8"  width="3" height="3" rx=".5" fill="#222"/>
    <rect x="16" y="8"  width="3" height="3" rx=".5" fill="#222"/>
    <rect x="20" y="8"  width="3" height="3" rx=".5" fill="#222"/>
    <rect x="24" y="8"  width="3" height="3" rx=".5" fill="#ff2244"/>
    <!-- Row 3 -->
    <rect x="0"  y="12" width="3" height="3" rx=".5" fill="#ff2244"/>
    <rect x="4"  y="12" width="3" height="3" rx=".5" fill="#222"/>
    <rect x="8"  y="12" width="3" height="3" rx=".5" fill="#ff2244"/>
    <rect x="12" y="12" width="3" height="3" rx=".5" fill="#222"/>
    <rect x="16" y="12" width="3" height="3" rx=".5" fill="#ff2244"/>
    <rect x="20" y="12" width="3" height="3" rx=".5" fill="#222"/>
    <rect x="24" y="12" width="3" height="3" rx=".5" fill="#ff2244"/>
    <!-- Row 4 -->
    <rect x="0"  y="16" width="3" height="3" rx=".5" fill="#ff2244"/>
    <rect x="4"  y="16" width="3" height="3" rx=".5" fill="#222"/>
    <rect x="8"  y="16" width="3" height="3" rx=".5" fill="#222"/>
    <rect x="12" y="16" width="3" height="3" rx=".5" fill="#222"/>
    <rect x="16" y="16" width="3" height="3" rx=".5" fill="#222"/>
    <rect x="20" y="16" width="3" height="3" rx=".5" fill="#222"/>
    <rect x="24" y="16" width="3" height="3" rx=".5" fill="#ff2244"/>
    <!-- Row 5 -->
    <rect x="0"  y="20" width="3" height="3" rx=".5" fill="#222"/>
    <rect x="4"  y="20" width="3" height="3" rx=".5" fill="#ff2244"/>
    <rect x="8"  y="20" width="3" height="3" rx=".5" fill="#222"/>
    <rect x="12" y="20" width="3" height="3" rx=".5" fill="#222"/>
    <rect x="16" y="20" width="3" height="3" rx=".5" fill="#222"/>
    <rect x="20" y="20" width="3" height="3" rx=".5" fill="#ff2244"/>
    <rect x="24" y="20" width="3" height="3" rx=".5" fill="#222"/>
    <!-- Row 6 -->
    <rect x="0"  y="24" width="3" height="3" rx=".5" fill="#222"/>
    <rect x="4"  y="24" width="3" height="3" rx=".5" fill="#222"/>
    <rect x="8"  y="24" width="3" height="3" rx=".5" fill="#ff2244"/>
    <rect x="12" y="24" width="3" height="3" rx=".5" fill="#ff2244"/>
    <rect x="16" y="24" width="3" height="3" rx=".5" fill="#ff2244"/>
    <rect x="20" y="24" width="3" height="3" rx=".5" fill="#222"/>
    <rect x="24" y="24" width="3" height="3" rx=".5" fill="#222"/>
  </g>
</svg>
